<svg xmlns="http://www.w3.org/2000/svg" width="828" height="751" viewBox="0 0 828 751">
  <g fill="none" fill-rule="evenodd" transform="translate(0 .981)">
    <polygon fill="#FFF" fill-rule="nonzero"
      points="0 750 0 0 487 0 213.766 225 213.766 522.727 461.284 750"
      transform="translate(0 .019)" />
    <path fill="#FF3521"
      d="M388.865531,0.679401069 C305.352531,20.4043011 230.769531,67.2236011 176.817531,133.790701 C122.865531,200.357601 92.5992313,282.905601 90.7669313,368.481601 C88.9345313,454.057601 115.640531,537.818601 166.693531,606.622601 C217.746531,675.425601 290.257531,725.377601 372.849531,748.640601 C375.894531,749.513601 379.081531,749.777601 382.228531,749.417601 C385.375531,749.058601 388.420531,748.081601 391.188531,746.545601 C393.956531,745.009601 396.392531,742.942601 398.357531,740.464601 C400.322531,737.986601 401.776531,735.145601 402.637531,732.105601 C403.498531,729.064601 403.748531,725.884601 403.373531,722.747601 C402.998531,719.610601 402.006531,716.577601 400.453531,713.824601 C398.900531,711.070601 396.816531,708.650601 394.323531,706.702601 C391.829531,704.754601 388.974531,703.316601 385.922531,702.472601 C313.689531,681.986601 250.304531,638.195601 205.683531,577.952601 C161.063531,517.709601 137.726531,444.412601 139.324531,369.532601 C140.921531,294.651601 167.364531,222.410601 214.513531,164.115601 C261.663531,105.820201 326.859531,64.7589611 399.900531,47.3565011 C405.672531,46.0219011 410.747531,42.6093011 414.151531,37.7731011 C417.556531,32.9369011 419.051531,27.0175011 418.350531,21.1497011 C417.649531,15.2819011 414.801531,9.87850107 410.351531,5.97590107 C405.902531,2.07340107 400.165531,-0.0536989308 394.241531,0.0010304335 C392.333531,-0.0107989308 390.432531,0.216701069 388.582531,0.679401069 L388.865531,0.679401069 Z M48.7531313,548.669601 C43.7699313,548.642601 38.9175313,547.075601 34.8638313,544.185601 C30.8102313,541.294601 27.7543313,537.221601 26.1167313,532.527601 C-5.66260869,440.529601 -8.50919869,341.045601 17.9579313,247.389601 C44.4250313,153.733301 98.9430313,70.3743011 174.215531,8.46920107 C176.639531,6.36300107 179.462531,4.76290107 182.517531,3.76350107 C185.571531,2.76400107 188.796531,2.38550107 192.000531,2.65040107 C195.204531,2.91530107 198.322531,3.81820107 201.171531,5.30570107 C204.019531,6.79330107 206.539531,8.83530107 208.582531,11.3109011 C210.625531,13.7865011 212.150531,16.6454011 213.067531,19.7189011 C213.983531,22.7924011 214.272531,26.0183011 213.917531,29.2052011 C213.562531,32.3921011 212.570531,35.4756011 211.000531,38.2735011 C209.429531,41.0715011 207.312531,43.5269011 204.774531,45.4948011 C137.056531,101.160101 88.0050313,176.129601 64.1871313,260.366601 C40.3692313,344.603601 42.9215313,434.086601 71.5026313,516.836601 C72.7675313,520.443601 73.1482313,524.299601 72.6130313,528.082601 C72.0777313,531.865601 70.6419313,535.466601 68.4257313,538.582601 C66.2096313,541.699601 63.2775313,544.241601 59.8746313,545.996601 C56.4718313,547.750601 52.6970313,548.669601 48.8662313,548.669601 L48.7531313,548.669601 Z M268.131531,586.220601 C323.834531,641.808601 399.365531,673.099601 478.165531,673.234601 L478.335531,673.234601 C531.043531,673.174601 582.792531,659.174601 628.304531,632.661601 C673.817531,606.147601 711.465531,568.069601 737.408531,522.309601 C739.021531,519.564601 740.069531,516.526601 740.493531,513.372601 C740.916531,510.219601 740.706244,507.013601 739.876531,503.941601 C739.045531,500.869601 737.610531,497.993601 735.654531,495.480601 C733.699531,492.966601 731.261531,490.866601 728.483531,489.301601 C725.706531,487.736601 722.644531,486.738601 719.476531,486.365601 C716.308531,485.992601 713.097531,486.251601 710.030531,487.127601 C706.964531,488.003601 704.102531,489.479601 701.613531,491.469601 C699.124531,493.459601 697.056531,495.923601 695.531531,498.717601 C668.624531,546.796601 626.459531,584.594601 575.665531,606.167601 C524.871531,627.740601 468.329531,631.866601 414.927531,617.895601 C361.526531,603.924601 314.295531,572.649601 280.658531,528.987601 C247.022531,485.325601 228.888531,431.752601 229.108531,376.690601 C228.929531,322.603601 246.609531,269.962601 279.418531,226.895601 C281.465531,224.399601 282.987531,221.516601 283.892531,218.420601 C284.797531,215.323601 285.067531,212.077601 284.685531,208.874601 C284.304531,205.671601 283.278531,202.578601 281.670531,199.780601 C280.063531,196.981601 277.906531,194.535601 275.328531,192.587601 C272.751531,190.639601 269.806531,189.230601 266.670531,188.443601 C263.533531,187.656601 260.270531,187.508601 257.076531,188.008601 C253.881531,188.508601 250.820531,189.645601 248.076531,191.352601 C245.332531,193.058601 242.961531,195.299601 241.105531,197.941601 C201.907531,249.311601 180.784531,312.137601 181.004799,376.690601 C181.096531,455.282601 212.427531,530.631601 268.131531,586.220601 Z"
      transform="translate(86.626)" />
  </g>
</svg>